<?xml version="1.0" encoding="UTF-8"?>
<svg xmlns="http://www.w3.org/2000/svg" xmlns:xlink="http://www.w3.org/1999/xlink" viewBox="0 0 681.87 562.09">
  <defs>
    <style>
      .cls-1 {
        clip-path: url(#clippath-2);
      }

      .cls-2 {
        clip-path: url(#clippath-6);
      }

      .cls-3 {
        fill: none;
      }

      .cls-3, .cls-4, .cls-5, .cls-6 {
        stroke-width: 0px;
      }

      .cls-7 {
        clip-path: url(#clippath-7);
      }

      .cls-8 {
        clip-path: url(#clippath-1);
      }

      .cls-9 {
        clip-path: url(#clippath-4);
      }

      .cls-10 {
        clip-path: url(#clippath);
      }

      .cls-11 {
        clip-path: url(#clippath-3);
      }

      .cls-4 {
        fill: #c2c1c0;
      }

      .cls-5 {
        fill: #4c3c2d;
      }

      .cls-12 {
        clip-path: url(#clippath-5);
      }

      .cls-6 {
        fill: #212121;
      }
    </style>
    <clipPath id="clippath">
      <rect class="cls-3" x="269.93" y="144.49" width="127.99" height="325.94"/>
    </clipPath>
    <clipPath id="clippath-1">
      <rect class="cls-3" x="397.92" y="144.49" width="127.99" height="325.94"/>
    </clipPath>
    <clipPath id="clippath-2">
      <rect class="cls-3" x="313.66" y="92.74" width="84.25" height="197.58"/>
    </clipPath>
    <clipPath id="clippath-3">
      <rect class="cls-3" x="397.92" y="92.74" width="84.25" height="197.58"/>
    </clipPath>
    <clipPath id="clippath-4">
      <rect class="cls-3" x="311.39" y="92.74" width="88.14" height="201.67"/>
    </clipPath>
    <clipPath id="clippath-5">
      <rect class="cls-3" x="399.53" y="92.74" width="88.14" height="201.67"/>
    </clipPath>
    <clipPath id="clippath-6">
      <rect class="cls-3" x="334.63" y="135.69" width="63.28" height="164.41"/>
    </clipPath>
    <clipPath id="clippath-7">
      <rect class="cls-3" x="397.92" y="135.69" width="63.28" height="164.41"/>
    </clipPath>
  </defs>
  <g id="Layer_4" data-name="Layer 4">
    <rect class="cls-5" x="108.11" width="573.76" height="562.09"/>
  </g>
  <g id="Layer_3" data-name="Layer 3">
    <g>
      <g id="_Mirror_Repeat_" data-name="&amp;lt;Mirror Repeat&amp;gt;">
        <g class="cls-10">
          <path class="cls-6" d="M397.91,150.38l-74.16,1.57s-23.1-.9-34.32-5.83-17.27,2.92-17.27,2.92c0,0-2.24,4.26-2.24,11.66v10.54l8.75.9s-2.47,5.98.67,30.24,4.71,53.42,11.89,68.9,4.68,10.32,7.84,14.13,4.05,5.83-3.35,6.95c-7.4,1.12-8.07,6.06-8.07,6.06l2.02,3.36s-5.61,2.92-5.38,10.09.67,15.25.67,15.25c0,0-.67,4.04,2.47,5.38s4.93,13.23,9.42,21.76c4.49,8.52,12.11,23.1,23.33,28.71,11.21,5.61,17.94,7.63,17.94,7.63l-10.77,63.93s-1.35,9.42-1.12,10.99,3.05,4.26,7.69,4.71c4.64.45,63.99,0,63.99,0V150.38Z"/>
        </g>
      </g>
      <g id="_Mirror_Repeat_-2" data-name="&amp;lt;Mirror Repeat&amp;gt;">
        <g class="cls-8">
          <path class="cls-6" d="M397.92,150.38l74.16,1.57s23.1-.9,34.32-5.83,17.27,2.92,17.27,2.92c0,0,2.24,4.26,2.24,11.66v10.54l-8.75.9s2.47,5.98-.67,30.24c-3.14,24.26-4.71,53.42-11.89,68.9-7.18,15.48-4.68,10.32-7.84,14.13s-4.05,5.83,3.35,6.95c7.4,1.12,8.07,6.06,8.07,6.06l-2.02,3.36s5.61,2.92,5.38,10.09c-.22,7.18-.67,15.25-.67,15.25,0,0,.67,4.04-2.47,5.38s-4.93,13.23-9.42,21.76-12.11,23.1-23.33,28.71c-11.21,5.61-17.94,7.63-17.94,7.63l10.77,63.93s1.35,9.42,1.12,10.99-3.05,4.26-7.69,4.71c-4.64.45-63.99,0-63.99,0V150.38Z"/>
        </g>
      </g>
    </g>
    <g>
      <g id="_Mirror_Repeat_-3" data-name="&amp;lt;Mirror Repeat&amp;gt;">
        <g class="cls-1">
          <path class="cls-4" d="M397.91,92.74s-30.87,4.26-45.89,21.31-30.95,31.85-34.77,52.26-7.18,59.21,4.26,87.93,29.29,35.44,34.27,35.89c4.98.45,42.13,0,42.13,0V92.74Z"/>
        </g>
      </g>
      <g id="_Mirror_Repeat_-4" data-name="&amp;lt;Mirror Repeat&amp;gt;">
        <g class="cls-11">
          <path class="cls-4" d="M397.92,92.74s30.87,4.26,45.89,21.31,30.95,31.85,34.77,52.26,7.18,59.21-4.26,87.93c-11.44,28.71-29.29,35.44-34.27,35.89-4.98.45-42.13,0-42.13,0V92.74Z"/>
        </g>
      </g>
    </g>
    <g id="Layer_6" data-name="Layer 6">
      <g>
        <g id="_Mirror_Repeat_-5" data-name="&amp;lt;Mirror Repeat&amp;gt;">
          <g class="cls-9">
            <path class="cls-4" d="M399.53,92.74s-64.65-1.9-82.59,73.91,12.97,104.75,17.7,110.58,13.7,15.17,32.77,16.56,32.13,0,32.13,0V92.74"/>
          </g>
        </g>
        <g id="_Mirror_Repeat_-6" data-name="&amp;lt;Mirror Repeat&amp;gt;">
          <g class="cls-12">
            <path class="cls-4" d="M399.53,92.74s64.65-1.9,82.59,73.91-12.97,104.75-17.7,110.58-13.7,15.17-32.77,16.56-32.13,0-32.13,0V92.74"/>
          </g>
        </g>
      </g>
    </g>
    <path class="cls-4" d="M397.9,92.73c-4.57.19-12.34,1.05-12.69,5.42-.07,6.05-.02,16.25-.04,30.92-.02,39.41.01,136.62,0,159.67-.02,1.28.04,2.5,1.21,3.4.49.41,1.29.75,1.96.95,2.92.83,6.05.59,9.1.64,4.35-.41,12.43,1.36,14.95-2.77,1.24-41.19-2.44-116.26-2.71-161.53-.22-9.11-.41-21.17-.67-29.44.07-5.86-5.04-7.4-10.89-7.28h-.22Z"/>
    <g>
      <g id="_Mirror_Repeat_-7" data-name="&amp;lt;Mirror Repeat&amp;gt;">
        <g class="cls-2">
          <path class="cls-6" d="M398.68,300.1h-42.26s.17-3.53.17-6.18,1.29-10.33-.75-20.4-8.52-28.26-8.52-28.26c0,0-2.21-.27-4.93-2.92s-2.25-11.73-6.5-24.45,3.81-10.77,3.81-10.77c0,0,4.86,1.21,1.79-9.87s.16-19.44,1.35-23.33.58-12.9,14.02-25.79,42.39-12.45,42.39-12.45"/>
        </g>
      </g>
      <g id="_Mirror_Repeat_-8" data-name="&amp;lt;Mirror Repeat&amp;gt;">
        <g class="cls-7">
          <path class="cls-6" d="M397.15,300.1h42.26s-.17-3.53-.17-6.18-1.29-10.33.75-20.4,8.52-28.26,8.52-28.26c0,0,2.21-.27,4.93-2.92s2.25-11.73,6.5-24.45-3.81-10.77-3.81-10.77c0,0-4.86,1.21-1.79-9.87s-.16-19.44-1.35-23.33-.58-12.9-14.02-25.79-42.39-12.45-42.39-12.45"/>
        </g>
      </g>
    </g>
    <path class="cls-6" d="M400.15,135.94c-17.32.7-13.79,52.97-14.39,66.13,0,18.11-.51,35.88.14,53.65.53,10.44,1.29,22.47,5.99,31.62,7.43,13.26,15.74,2.83,18.12-7.47,3.5-13.61,3.24-28.36,3.46-42.41-.03-16.36.13-33.15-.1-49.91-.53-11.81-.1-48.32-13.12-51.59h-.1Z"/>
    <path class="cls-6" d="M392.39,272.82c-11.41,8.07-9.8,33.28-10.16,46.62-.02,31.79,0,64.56,0,96.53.29,15-1.12,32.67,4.61,46.41,5.13,11.55,12.99,9.38,16.88-1.6,2.53-6.7,3.24-15.54,3.41-23.24.3-41.75.28-90.11,0-132.53-.17-8.58-1.04-19.12-4.51-26.09-2.78-5.51-6.18-8.09-10.15-6.14l-.08.04Z"/>
  </g>
</svg>