<?xml version="1.0" encoding="UTF-8"?>
<svg xmlns="http://www.w3.org/2000/svg" xmlns:xlink="http://www.w3.org/1999/xlink" viewBox="0 0 679.18 562.09">
  <defs>
    <style>
      .cls-1 {
        clip-path: url(#clippath-2);
      }

      .cls-2 {
        fill: none;
      }

      .cls-2, .cls-3, .cls-4, .cls-5 {
        stroke-width: 0px;
      }

      .cls-6 {
        clip-path: url(#clippath-1);
      }

      .cls-7 {
        clip-path: url(#clippath-4);
      }

      .cls-8 {
        clip-path: url(#clippath);
      }

      .cls-9 {
        clip-path: url(#clippath-3);
      }

      .cls-3 {
        fill: #c2c1c0;
      }

      .cls-4 {
        fill: #4c3c2d;
      }

      .cls-10 {
        clip-path: url(#clippath-5);
      }

      .cls-5 {
        fill: #212121;
      }
    </style>
    <clipPath id="clippath">
      <rect class="cls-2" x="254.36" y="132.28" width="127.99" height="325.94"/>
    </clipPath>
    <clipPath id="clippath-1">
      <rect class="cls-2" x="382.34" y="132.28" width="127.99" height="325.94"/>
    </clipPath>
    <clipPath id="clippath-2">
      <rect class="cls-2" x="298.09" y="80.52" width="84.25" height="197.58"/>
    </clipPath>
    <clipPath id="clippath-3">
      <rect class="cls-2" x="382.34" y="80.52" width="84.25" height="197.58"/>
    </clipPath>
    <clipPath id="clippath-4">
      <rect class="cls-2" x="319.06" y="123.47" width="63.28" height="164.41"/>
    </clipPath>
    <clipPath id="clippath-5">
      <rect class="cls-2" x="382.34" y="123.47" width="63.28" height="164.41"/>
    </clipPath>
  </defs>
  <g id="Layer_4" data-name="Layer 4">
    <rect class="cls-4" x="105.42" width="573.76" height="562.09"/>
  </g>
  <g id="Layer_3" data-name="Layer 3">
    <g>
      <g id="_Mirror_Repeat_" data-name="&amp;lt;Mirror Repeat&amp;gt;">
        <g class="cls-8">
          <path class="cls-5" d="M382.34,138.17l-74.16,1.57s-23.1-.9-34.32-5.83-17.27,2.92-17.27,2.92c0,0-2.24,4.26-2.24,11.66v10.54l8.75.9s-2.47,5.98.67,30.24,4.71,53.42,11.89,68.9,4.68,10.32,7.84,14.13,4.05,5.83-3.35,6.95-8.07,6.06-8.07,6.06l2.02,3.36s-5.61,2.92-5.38,10.09.67,15.25.67,15.25c0,0-.67,4.04,2.47,5.38s4.93,13.23,9.42,21.76,12.11,23.1,23.33,28.71,17.94,7.63,17.94,7.63l-10.77,63.93s-1.35,9.42-1.12,10.99,3.05,4.26,7.69,4.71,63.99,0,63.99,0V138.17Z"/>
        </g>
      </g>
      <g id="_Mirror_Repeat_-2" data-name="&amp;lt;Mirror Repeat&amp;gt;">
        <g class="cls-6">
          <path class="cls-5" d="M382.34,138.17l74.16,1.57s23.1-.9,34.32-5.83,17.27,2.92,17.27,2.92c0,0,2.24,4.26,2.24,11.66v10.54l-8.75.9s2.47,5.98-.67,30.24-4.71,53.42-11.89,68.9-4.68,10.32-7.84,14.13-4.05,5.83,3.35,6.95,8.07,6.06,8.07,6.06l-2.02,3.36s5.61,2.92,5.38,10.09-.67,15.25-.67,15.25c0,0,.67,4.04-2.47,5.38s-4.93,13.23-9.42,21.76c-4.49,8.52-12.11,23.1-23.33,28.71-11.21,5.61-17.94,7.63-17.94,7.63l10.77,63.93s1.35,9.42,1.12,10.99-3.05,4.26-7.69,4.71c-4.64.45-63.99,0-63.99,0V138.17Z"/>
        </g>
      </g>
    </g>
    <g>
      <g id="_Mirror_Repeat_-3" data-name="&amp;lt;Mirror Repeat&amp;gt;">
        <g class="cls-1">
          <path class="cls-3" d="M382.34,80.52s-30.87,4.26-45.89,21.31-30.95,31.85-34.77,52.26-7.18,59.21,4.26,87.93,29.29,35.44,34.27,35.89,42.13,0,42.13,0V80.52Z"/>
        </g>
      </g>
      <g id="_Mirror_Repeat_-4" data-name="&amp;lt;Mirror Repeat&amp;gt;">
        <g class="cls-9">
          <path class="cls-3" d="M382.34,80.52s30.87,4.26,45.89,21.31,30.95,31.85,34.77,52.26c3.81,20.41,7.18,59.21-4.26,87.93-11.44,28.71-29.29,35.44-34.27,35.89s-42.13,0-42.13,0V80.52Z"/>
        </g>
      </g>
    </g>
    <polygon class="cls-3" points="382.34 80.52 369.64 83.66 369.64 281.05 397.46 281.05 393.2 82.99 383.55 80.52 382.34 80.52"/>
    <g>
      <g id="_Mirror_Repeat_-5" data-name="&amp;lt;Mirror Repeat&amp;gt;">
        <g class="cls-7">
          <path class="cls-5" d="M383.1,287.89h-42.26s.17-3.53.17-6.18,1.29-10.33-.75-20.4-8.52-28.26-8.52-28.26c0,0-2.21-.27-4.93-2.92s-2.25-11.73-6.5-24.45,3.81-10.77,3.81-10.77c0,0,4.86,1.21,1.79-9.87s.16-19.44,1.35-23.33.58-12.9,14.02-25.79,42.39-12.45,42.39-12.45"/>
        </g>
      </g>
      <g id="_Mirror_Repeat_-6" data-name="&amp;lt;Mirror Repeat&amp;gt;">
        <g class="cls-10">
          <path class="cls-5" d="M381.58,287.89h42.26s-.17-3.53-.17-6.18-1.29-10.33.75-20.4c2.04-10.07,8.52-28.26,8.52-28.26,0,0,2.21-.27,4.93-2.92s2.25-11.73,6.5-24.45c4.25-12.71-3.81-10.77-3.81-10.77,0,0-4.86,1.21-1.79-9.87s-.16-19.44-1.35-23.33-.58-12.9-14.02-25.79c-13.44-12.89-42.39-12.45-42.39-12.45"/>
        </g>
      </g>
    </g>
    <path class="cls-5" d="M392.3,124.26c-9.76-2.02-21.98,0-21.98,0l-.67,156.79h27.81V124.93l-5.16-.67Z"/>
    <rect class="cls-5" x="366.95" y="260.64" width="25.35" height="197.58"/>
  </g>
</svg>