<?xml version="1.0" encoding="UTF-8"?>
<svg id="Layer_3" data-name="Layer 3" xmlns="http://www.w3.org/2000/svg" xmlns:xlink="http://www.w3.org/1999/xlink" viewBox="0 0 255.99 377.73">
  <defs>
    <clipPath id="clippath">
      <rect x="0" y="51.79" width="127.99" height="325.94" style="fill: none; stroke-width: 0px;"/>
    </clipPath>
    <clipPath id="clippath-1">
      <rect x="128" y="51.79" width="127.99" height="325.94" style="fill: none; stroke-width: 0px;"/>
    </clipPath>
    <clipPath id="clippath-2">
      <rect x="43.74" y=".04" width="84.25" height="197.58" style="fill: none; stroke-width: 0px;"/>
    </clipPath>
    <clipPath id="clippath-3">
      <rect x="128" y=".04" width="84.25" height="197.58" style="fill: none; stroke-width: 0px;"/>
    </clipPath>
    <clipPath id="clippath-4">
      <rect x="41.47" y=".04" width="88.14" height="201.67" style="fill: none; stroke-width: 0px;"/>
    </clipPath>
    <clipPath id="clippath-5">
      <rect x="129.61" y=".04" width="88.14" height="201.67" style="fill: none; stroke-width: 0px;"/>
    </clipPath>
    <clipPath id="clippath-6">
      <rect x="64.71" y="42.99" width="63.28" height="164.41" style="fill: none; stroke-width: 0px;"/>
    </clipPath>
    <clipPath id="clippath-7">
      <rect x="128" y="42.99" width="63.28" height="164.41" style="fill: none; stroke-width: 0px;"/>
    </clipPath>
  </defs>
  <g>
    <g id="_Mirror_Repeat_" data-name=" Mirror Repeat ">
      <g style="clip-path: url(#clippath);">
        <path d="M127.99,57.68l-74.16,1.57s-23.1-.9-34.32-5.83-17.27,2.92-17.27,2.92c0,0-2.24,4.26-2.24,11.66v10.54l8.75.9s-2.47,5.98.67,30.24,4.71,53.42,11.89,68.9c7.18,15.48,4.68,10.32,7.84,14.13s4.05,5.83-3.35,6.95c-7.4,1.12-8.07,6.06-8.07,6.06l2.02,3.36s-5.61,2.92-5.38,10.09.67,15.25.67,15.25c0,0-.67,4.04,2.47,5.38s4.93,13.23,9.42,21.76c4.49,8.52,12.11,23.1,23.33,28.71,11.21,5.61,17.94,7.63,17.94,7.63l-10.77,63.93s-1.35,9.42-1.12,10.99,3.05,4.26,7.69,4.71c4.64.45,63.99,0,63.99,0V57.68h0Z" style="fill: #212121; stroke-width: 0px;"/>
      </g>
    </g>
    <g id="_Mirror_Repeat_-2" data-name=" Mirror Repeat -2">
      <g style="clip-path: url(#clippath-1);">
        <path d="M128,57.68l74.16,1.57s23.1-.9,34.32-5.83c11.22-4.93,17.27,2.92,17.27,2.92,0,0,2.24,4.26,2.24,11.66v10.54l-8.75.9s2.47,5.98-.67,30.24c-3.14,24.26-4.71,53.42-11.89,68.9-7.18,15.48-4.68,10.32-7.84,14.13s-4.05,5.83,3.35,6.95c7.4,1.12,8.07,6.06,8.07,6.06l-2.02,3.36s5.61,2.92,5.38,10.09c-.22,7.18-.67,15.25-.67,15.25,0,0,.67,4.04-2.47,5.38s-4.93,13.23-9.42,21.76-12.11,23.1-23.33,28.71c-11.21,5.61-17.94,7.63-17.94,7.63l10.77,63.93s1.35,9.42,1.12,10.99-3.05,4.26-7.69,4.71c-4.64.45-63.99,0-63.99,0V57.68h0Z" style="fill: #212121; stroke-width: 0px;"/>
      </g>
    </g>
  </g>
  <g>
    <g id="_Mirror_Repeat_-3" data-name=" Mirror Repeat -3">
      <g style="clip-path: url(#clippath-2);">
        <path d="M127.99.04s-30.87,4.26-45.89,21.31-30.95,31.85-34.77,52.26-7.18,59.21,4.26,87.93,29.29,35.44,34.27,35.89c4.98.45,42.13,0,42.13,0V.04h0Z" style="fill: #c2c1c0; stroke-width: 0px;"/>
      </g>
    </g>
    <g id="_Mirror_Repeat_-4" data-name=" Mirror Repeat -4">
      <g style="clip-path: url(#clippath-3);">
        <path d="M128,.04s30.87,4.26,45.89,21.31,30.95,31.85,34.77,52.26,7.18,59.21-4.26,87.93c-11.44,28.71-29.29,35.44-34.27,35.89-4.98.45-42.13,0-42.13,0V.04h0Z" style="fill: #c2c1c0; stroke-width: 0px;"/>
      </g>
    </g>
  </g>
  <g id="Layer_6" data-name="Layer 6">
    <g>
      <g id="_Mirror_Repeat_-5" data-name=" Mirror Repeat -5">
        <g style="clip-path: url(#clippath-4);">
          <path d="M129.61.04S64.96-1.86,47.02,73.95s12.97,104.75,17.7,110.58,13.7,15.17,32.77,16.56,32.13,0,32.13,0V.04" style="fill: #c2c1c0; stroke-width: 0px;"/>
        </g>
      </g>
      <g id="_Mirror_Repeat_-6" data-name=" Mirror Repeat -6">
        <g style="clip-path: url(#clippath-5);">
          <path d="M129.61.04s64.65-1.9,82.59,73.91-12.97,104.75-17.7,110.58-13.7,15.17-32.77,16.56-32.13,0-32.13,0V.04" style="fill: #c2c1c0; stroke-width: 0px;"/>
        </g>
      </g>
    </g>
  </g>
  <path d="M127.98.03c-4.57.19-12.34,1.05-12.69,5.42-.07,6.05-.02,16.25-.04,30.92-.02,39.41.01,136.62,0,159.67-.02,1.28.04,2.5,1.21,3.4.49.41,1.29.75,1.96.95,2.92.83,6.05.59,9.1.64,4.35-.41,12.43,1.36,14.95-2.77,1.24-41.19-2.44-116.26-2.71-161.53-.22-9.11-.41-21.17-.67-29.44.07-5.86-5.04-7.4-10.89-7.28h-.22v.02Z" style="fill: #c2c1c0; stroke-width: 0px;"/>
  <path d="M130.23,43.24c-17.32.7-13.79,52.97-14.39,66.13,0,18.11-.51,35.88.14,53.65.53,10.44,1.29,22.47,5.99,31.62,7.43,13.26,15.74,2.83,18.12-7.47,3.5-13.61,3.24-28.36,3.46-42.41-.03-16.36.13-33.15-.1-49.91-.53-11.81-.1-48.32-13.12-51.59h-.1v-.02Z" style="fill: #212121; stroke-width: 0px;"/>
  <path d="M122.47,180.12c-11.41,8.07-9.8,33.28-10.16,46.62-.02,31.79,0,64.56,0,96.53.29,15-1.12,32.67,4.61,46.41,5.13,11.55,12.99,9.38,16.88-1.6,2.53-6.7,3.24-15.54,3.41-23.24.3-41.75.28-90.11,0-132.53-.17-8.58-1.04-19.12-4.51-26.09-2.78-5.51-6.18-8.09-10.15-6.14l-.08.04Z" style="fill: #212121; stroke-width: 0px;"/>
  <g>
    <g id="_Mirror_Repeat_-7" data-name=" Mirror Repeat -7">
      <g style="clip-path: url(#clippath-6);">
        <path d="M128.76,207.4h-42.26s.17-3.53.17-6.18,1.29-10.33-.75-20.4-8.52-28.26-8.52-28.26c0,0-2.21-.27-4.93-2.92s-2.25-11.73-6.5-24.45,3.81-10.77,3.81-10.77c0,0,4.86,1.21,1.79-9.87s.16-19.44,1.35-23.33.58-12.9,14.02-25.79,42.39-12.45,42.39-12.45" style="fill: #212121; stroke-width: 0px;"/>
      </g>
    </g>
    <g id="_Mirror_Repeat_-8" data-name=" Mirror Repeat -8">
      <g style="clip-path: url(#clippath-7);">
        <path d="M127.23,207.4h42.26s-.17-3.53-.17-6.18-1.29-10.33.75-20.4,8.52-28.26,8.52-28.26c0,0,2.21-.27,4.93-2.92s2.25-11.73,6.5-24.45-3.81-10.77-3.81-10.77c0,0-4.86,1.21-1.79-9.87s-.16-19.44-1.35-23.33-.58-12.9-14.02-25.79-42.39-12.45-42.39-12.45" style="fill: #212121; stroke-width: 0px;"/>
      </g>
    </g>
  </g>
</svg>