<?xml version="1.0" encoding="UTF-8"?>
<svg id="Layer_1" data-name="Layer 1" xmlns="http://www.w3.org/2000/svg" viewBox="0 0 175.65 70.26">
  <path d="M0,35.13C0,15.73,39.32,0,87.82,0s87.82,15.73,87.82,35.13-39.32,35.13-87.82,35.13S0,54.53,0,35.13ZM107.41,38.21c-.02-.12-.12-.21-.24-.23-2.53-.37-5.07-.66-7.61-.87-.15-.03-.26-.17-.16-.49,8.12-8.54,11.2-19.41,7.1-27.91.02-.16.17-.28.33-.26,0,0,0,0,0,0,27.93,3.39,48.33,14.06,48.33,26.69,0,15.36-30.15,27.81-67.33,27.81S20.49,50.49,20.49,35.13c0-13.31,22.66-24.45,52.92-27.17.15,0,.27.12.28.35l-6.57,36.18c-.46,2.38,1.1,4.69,3.48,5.15.27.05.55.08.83.08h.24c5.86-.29,12.16-2.12,18.1-5.56,1.69-.97,3.31-2.05,4.86-3.23.09-.07.22-.09.32-.03,1.98,1.32,3.12,2.86,3.12,4.51,0,2.24-2.1,4.29-5.57,5.84-4.02,1.8-9.87,2.94-16.39,2.94-5.52,0-10.57-.81-14.48-2.17-.16-.03-.31.08-.34.24,0,0,0,0,0,0l-.56,3.07c-.02.15.08.29.23.33,7.96,1.85,17.12,2.91,26.87,2.91,12.12,0,21.96-3.93,21.96-8.78,0-1.89-1.49-3.63-4.01-5.06-2.21-1.09-3.61-2.49-3.27-3.44.36-.98,2.47-1.14,4.99-.46.14.02.28-.07.33-.32,0,0-.42-2.28-.42-2.28ZM87.82,16.06c0,.19,0,.38-.02.56.32,6.45-3.67,15.07-10.95,22.35-1.45,1.45-2.99,2.8-4.61,4.04-.06.04-.14.06-.22.04-.15-.03-.25-.18-.22-.35l7.14-39.29c0-.15-.13-.27-.28-.28C39.33,4.99,8.78,18.61,8.78,35.13c0,17.78,35.39,32.2,79.04,32.2s79.04-14.42,79.04-32.2S131.48,2.93,87.82,2.93c-1.38,0-2.76.01-4.14.04-.13,0-.25.09-.28.22l-.83,4.59c-.02.12.04.24.14.3,3.12,1.43,5.12,4.55,5.12,7.98Z" style="fill: #005aa1; fill-rule: evenodd; stroke-width: 0px;"/>
</svg>