<?xml version="1.0" encoding="UTF-8"?>
<svg id="Layer_1" data-name="Layer 1" xmlns="http://www.w3.org/2000/svg" viewBox="0 0 1018.84 1018.84">
  <path d="M509.42,971.97c-253.69,0-461.53-208.86-461.53-462.55,0-57.05,10.19-111.05,29.55-162l269.99,543.04c3.06,7.13,8.15,13.24,16.3,13.24s13.24-6.11,16.3-13.24l124.3-278.14c1.02-3.06,3.06-6.11,6.11-6.11s4.08,3.06,6.11,6.11l124.3,278.14c3.06,7.13,8.15,13.24,16.3,13.24s13.24-6.11,16.3-13.24l269.99-543.04c19.36,50.94,29.55,104.94,29.55,162-2.04,253.69-209.88,462.55-463.57,462.55h0ZM509.42,404.48c-3.06,0-4.08-3.06-6.11-6.11L358.63,72.34c46.87-17.32,97.81-26.49,150.79-26.49s103.92,9.17,150.79,26.49l-144.68,326.03c-2.04,4.08-3.06,6.11-6.11,6.11h0ZM361.69,739.68c-3.06,0-4.08-3.06-6.11-6.11L121.25,260.83c41.77-64.19,97.81-118.19,166.07-155.88l169.13,375.95c2.04,6.11,7.13,8.15,12.23,8.15h81.51c6.11,0,10.19-1.02,13.24-8.15l169.13-375.95c67.24,37.7,124.3,91.7,166.07,155.88l-236.37,472.74c-1.02,3.06-3.06,6.11-6.11,6.11s-4.08-3.06-6.11-6.11l-88.64-201.73c-3.06-7.13-7.13-8.15-13.24-8.15h-81.51c-6.11,0-10.19,1.02-13.24,8.15l-85.58,201.73c-1.02,3.06-3.06,6.11-6.11,6.11h-.03ZM509.42,1018.84c282.22,0,509.42-227.2,509.42-509.42S791.64,0,509.42,0,0,227.2,0,509.42s227.2,509.42,509.42,509.42h0Z" style="fill: #001e50; stroke-width: 0px;"/>
</svg>